<?xml version="1.0" encoding="utf-8" standalone="no"?>
<!DOCTYPE svg PUBLIC "-//W3C//DTD SVG 1.1//EN"
  "http://www.w3.org/Graphics/SVG/1.1/DTD/svg11.dtd">
<!-- Created with matplotlib (https://matplotlib.org/) -->
<svg height="288pt" version="1.1" viewBox="0 0 288 288" width="288pt" xmlns="http://www.w3.org/2000/svg" xmlns:xlink="http://www.w3.org/1999/xlink">
 <defs>
  <style type="text/css">
*{stroke-linecap:butt;stroke-linejoin:round;white-space:pre;}
  </style>
 </defs>
 <g id="figure_1">
  <g id="patch_1">
   <path d="M 0 288 
L 288 288 
L 288 0 
L 0 0 
z
" style="fill:#ffffff;"/>
  </g>
  <g id="axes_1">
   <g id="patch_2">
    <path d="M 36 256.32 
L 259.2 256.32 
L 259.2 34.56 
L 36 34.56 
z
" style="fill:#eaeaf2;"/>
   </g>
   <g id="matplotlib.axis_1"/>
   <g id="matplotlib.axis_2"/>
   <g id="QuadMesh_1">
    <path clip-path="url(#pc50690315f)" d="M 36 46.88 
L 63.9 46.88 
L 63.9 71.52 
L 36 71.52 
L 36 46.88 
" style="fill:#ffece4;"/>
    <path clip-path="url(#pc50690315f)" d="M 63.9 46.88 
L 91.8 46.88 
L 91.8 71.52 
L 63.9 71.52 
L 63.9 46.88 
" style="fill:#ffece3;"/>
    <path clip-path="url(#pc50690315f)" d="M 91.8 46.88 
L 119.7 46.88 
L 119.7 71.52 
L 91.8 71.52 
L 91.8 46.88 
" style="fill:#feeae0;"/>
    <path clip-path="url(#pc50690315f)" d="M 119.7 46.88 
L 147.6 46.88 
L 147.6 71.52 
L 119.7 71.52 
L 119.7 46.88 
" style="fill:#fee9df;"/>
    <path clip-path="url(#pc50690315f)" d="M 147.6 46.88 
L 175.5 46.88 
L 175.5 71.52 
L 147.6 71.52 
L 147.6 46.88 
" style="fill:#fee8dd;"/>
    <path clip-path="url(#pc50690315f)" d="M 175.5 46.88 
L 203.4 46.88 
L 203.4 71.52 
L 175.5 71.52 
L 175.5 46.88 
" style="fill:#ffede5;"/>
    <path clip-path="url(#pc50690315f)" d="M 203.4 46.88 
L 231.3 46.88 
L 231.3 71.52 
L 203.4 71.52 
L 203.4 46.88 
" style="fill:#ffeee6;"/>
    <path clip-path="url(#pc50690315f)" d="M 231.3 46.88 
L 259.2 46.88 
L 259.2 71.52 
L 231.3 71.52 
L 231.3 46.88 
" style="fill:#fff0e9;"/>
    <path clip-path="url(#pc50690315f)" d="M 36 71.52 
L 63.9 71.52 
L 63.9 96.16 
L 36 96.16 
L 36 71.52 
" style="fill:#fee8dd;"/>
    <path clip-path="url(#pc50690315f)" d="M 63.9 71.52 
L 91.8 71.52 
L 91.8 96.16 
L 63.9 96.16 
L 63.9 71.52 
" style="fill:#fee7db;"/>
    <path clip-path="url(#pc50690315f)" d="M 91.8 71.52 
L 119.7 71.52 
L 119.7 96.16 
L 91.8 96.16 
L 91.8 71.52 
" style="fill:#fee3d7;"/>
    <path clip-path="url(#pc50690315f)" d="M 119.7 71.52 
L 147.6 71.52 
L 147.6 96.16 
L 119.7 96.16 
L 119.7 71.52 
" style="fill:#fee0d2;"/>
    <path clip-path="url(#pc50690315f)" d="M 147.6 71.52 
L 175.5 71.52 
L 175.5 96.16 
L 147.6 96.16 
L 147.6 71.52 
" style="fill:#fee1d3;"/>
    <path clip-path="url(#pc50690315f)" d="M 175.5 71.52 
L 203.4 71.52 
L 203.4 96.16 
L 175.5 96.16 
L 175.5 71.52 
" style="fill:#fed8c7;"/>
    <path clip-path="url(#pc50690315f)" d="M 203.4 71.52 
L 231.3 71.52 
L 231.3 96.16 
L 203.4 96.16 
L 203.4 71.52 
" style="fill:#feeae0;"/>
    <path clip-path="url(#pc50690315f)" d="M 231.3 71.52 
L 259.2 71.52 
L 259.2 96.16 
L 231.3 96.16 
L 231.3 71.52 
" style="fill:#feeae0;"/>
    <path clip-path="url(#pc50690315f)" d="M 36 96.16 
L 63.9 96.16 
L 63.9 120.8 
L 36 120.8 
L 36 96.16 
" style="fill:#fdc7b2;"/>
    <path clip-path="url(#pc50690315f)" d="M 63.9 96.16 
L 91.8 96.16 
L 91.8 120.8 
L 63.9 120.8 
L 63.9 96.16 
" style="fill:#fedccd;"/>
    <path clip-path="url(#pc50690315f)" d="M 91.8 96.16 
L 119.7 96.16 
L 119.7 120.8 
L 91.8 120.8 
L 91.8 96.16 
" style="fill:#fdcbb6;"/>
    <path clip-path="url(#pc50690315f)" d="M 119.7 96.16 
L 147.6 96.16 
L 147.6 120.8 
L 119.7 120.8 
L 119.7 96.16 
" style="fill:#fcbfa7;"/>
    <path clip-path="url(#pc50690315f)" d="M 147.6 96.16 
L 175.5 96.16 
L 175.5 120.8 
L 147.6 120.8 
L 147.6 96.16 
" style="fill:#fcb69b;"/>
    <path clip-path="url(#pc50690315f)" d="M 175.5 96.16 
L 203.4 96.16 
L 203.4 120.8 
L 175.5 120.8 
L 175.5 96.16 
" style="fill:#fdcab5;"/>
    <path clip-path="url(#pc50690315f)" d="M 203.4 96.16 
L 231.3 96.16 
L 231.3 120.8 
L 203.4 120.8 
L 203.4 96.16 
" style="fill:#fedecf;"/>
    <path clip-path="url(#pc50690315f)" d="M 231.3 96.16 
L 259.2 96.16 
L 259.2 120.8 
L 231.3 120.8 
L 231.3 96.16 
" style="fill:#fdd1be;"/>
    <path clip-path="url(#pc50690315f)" d="M 36 120.8 
L 63.9 120.8 
L 63.9 145.44 
L 36 145.44 
L 36 120.8 
" style="fill:#fdd4c2;"/>
    <path clip-path="url(#pc50690315f)" d="M 63.9 120.8 
L 91.8 120.8 
L 91.8 145.44 
L 63.9 145.44 
L 63.9 120.8 
" style="fill:#fc8b6b;"/>
    <path clip-path="url(#pc50690315f)" d="M 91.8 120.8 
L 119.7 120.8 
L 119.7 145.44 
L 91.8 145.44 
L 91.8 120.8 
" style="fill:#fca082;"/>
    <path clip-path="url(#pc50690315f)" d="M 119.7 120.8 
L 147.6 120.8 
L 147.6 145.44 
L 119.7 145.44 
L 119.7 120.8 
" style="fill:#f96346;"/>
    <path clip-path="url(#pc50690315f)" d="M 147.6 120.8 
L 175.5 120.8 
L 175.5 145.44 
L 147.6 145.44 
L 147.6 120.8 
" style="fill:#f24633;"/>
    <path clip-path="url(#pc50690315f)" d="M 175.5 120.8 
L 203.4 120.8 
L 203.4 145.44 
L 175.5 145.44 
L 175.5 120.8 
" style="fill:#fc997a;"/>
    <path clip-path="url(#pc50690315f)" d="M 203.4 120.8 
L 231.3 120.8 
L 231.3 145.44 
L 203.4 145.44 
L 203.4 120.8 
" style="fill:#fb7151;"/>
    <path clip-path="url(#pc50690315f)" d="M 231.3 120.8 
L 259.2 120.8 
L 259.2 145.44 
L 231.3 145.44 
L 231.3 120.8 
" style="fill:#fdcbb6;"/>
    <path clip-path="url(#pc50690315f)" d="M 36 145.44 
L 63.9 145.44 
L 63.9 170.08 
L 36 170.08 
L 36 145.44 
" style="fill:#fc997a;"/>
    <path clip-path="url(#pc50690315f)" d="M 63.9 145.44 
L 91.8 145.44 
L 91.8 170.08 
L 63.9 170.08 
L 63.9 145.44 
" style="fill:#fc9e80;"/>
    <path clip-path="url(#pc50690315f)" d="M 91.8 145.44 
L 119.7 145.44 
L 119.7 170.08 
L 91.8 170.08 
L 91.8 145.44 
" style="fill:#fb7151;"/>
    <path clip-path="url(#pc50690315f)" d="M 119.7 145.44 
L 147.6 145.44 
L 147.6 170.08 
L 119.7 170.08 
L 119.7 145.44 
" style="fill:#e63328;"/>
    <path clip-path="url(#pc50690315f)" d="M 147.6 145.44 
L 175.5 145.44 
L 175.5 170.08 
L 147.6 170.08 
L 147.6 145.44 
" style="fill:#f96245;"/>
    <path clip-path="url(#pc50690315f)" d="M 175.5 145.44 
L 203.4 145.44 
L 203.4 170.08 
L 175.5 170.08 
L 175.5 145.44 
" style="fill:#fc9474;"/>
    <path clip-path="url(#pc50690315f)" d="M 203.4 145.44 
L 231.3 145.44 
L 231.3 170.08 
L 203.4 170.08 
L 203.4 145.44 
" style="fill:#fc8a6a;"/>
    <path clip-path="url(#pc50690315f)" d="M 231.3 145.44 
L 259.2 145.44 
L 259.2 170.08 
L 231.3 170.08 
L 231.3 145.44 
" style="fill:#fc9d7f;"/>
    <path clip-path="url(#pc50690315f)" d="M 36 170.08 
L 63.9 170.08 
L 63.9 194.72 
L 36 194.72 
L 36 170.08 
" style="fill:#f03f2e;"/>
    <path clip-path="url(#pc50690315f)" d="M 63.9 170.08 
L 91.8 170.08 
L 91.8 194.72 
L 63.9 194.72 
L 63.9 170.08 
" style="fill:#d52221;"/>
    <path clip-path="url(#pc50690315f)" d="M 91.8 170.08 
L 119.7 170.08 
L 119.7 194.72 
L 91.8 194.72 
L 91.8 170.08 
" style="fill:#d01d1f;"/>
    <path clip-path="url(#pc50690315f)" d="M 119.7 170.08 
L 147.6 170.08 
L 147.6 194.72 
L 119.7 194.72 
L 119.7 170.08 
" style="fill:#e83429;"/>
    <path clip-path="url(#pc50690315f)" d="M 147.6 170.08 
L 175.5 170.08 
L 175.5 194.72 
L 147.6 194.72 
L 147.6 170.08 
" style="fill:#a30f15;"/>
    <path clip-path="url(#pc50690315f)" d="M 175.5 170.08 
L 203.4 170.08 
L 203.4 194.72 
L 175.5 194.72 
L 175.5 170.08 
" style="fill:#860811;"/>
    <path clip-path="url(#pc50690315f)" d="M 203.4 170.08 
L 231.3 170.08 
L 231.3 194.72 
L 203.4 194.72 
L 203.4 170.08 
" style="fill:#9c0d14;"/>
    <path clip-path="url(#pc50690315f)" d="M 231.3 170.08 
L 259.2 170.08 
L 259.2 194.72 
L 231.3 194.72 
L 231.3 170.08 
" style="fill:#f14130;"/>
    <path clip-path="url(#pc50690315f)" d="M 36 194.72 
L 63.9 194.72 
L 63.9 219.36 
L 36 219.36 
L 36 194.72 
" style="fill:#fb7252;"/>
    <path clip-path="url(#pc50690315f)" d="M 63.9 194.72 
L 91.8 194.72 
L 91.8 219.36 
L 63.9 219.36 
L 63.9 194.72 
" style="fill:#fcaa8d;"/>
    <path clip-path="url(#pc50690315f)" d="M 91.8 194.72 
L 119.7 194.72 
L 119.7 219.36 
L 91.8 219.36 
L 91.8 194.72 
" style="fill:#fc8161;"/>
    <path clip-path="url(#pc50690315f)" d="M 119.7 194.72 
L 147.6 194.72 
L 147.6 219.36 
L 119.7 219.36 
L 119.7 194.72 
" style="fill:#6d010e;"/>
    <path clip-path="url(#pc50690315f)" d="M 147.6 194.72 
L 175.5 194.72 
L 175.5 219.36 
L 147.6 219.36 
L 147.6 194.72 
" style="fill:#b11218;"/>
    <path clip-path="url(#pc50690315f)" d="M 175.5 194.72 
L 203.4 194.72 
L 203.4 219.36 
L 175.5 219.36 
L 175.5 194.72 
" style="fill:#c5171c;"/>
    <path clip-path="url(#pc50690315f)" d="M 203.4 194.72 
L 231.3 194.72 
L 231.3 219.36 
L 203.4 219.36 
L 203.4 194.72 
" style="fill:#f6563d;"/>
    <path clip-path="url(#pc50690315f)" d="M 231.3 194.72 
L 259.2 194.72 
L 259.2 219.36 
L 231.3 219.36 
L 231.3 194.72 
" style="fill:#d42121;"/>
    <path clip-path="url(#pc50690315f)" d="M 36 219.36 
L 63.9 219.36 
L 63.9 244 
L 36 244 
L 36 219.36 
" style="fill:#fcb296;"/>
    <path clip-path="url(#pc50690315f)" d="M 63.9 219.36 
L 91.8 219.36 
L 91.8 244 
L 63.9 244 
L 63.9 219.36 
" style="fill:#de2b25;"/>
    <path clip-path="url(#pc50690315f)" d="M 91.8 219.36 
L 119.7 219.36 
L 119.7 244 
L 91.8 244 
L 91.8 219.36 
" style="fill:#e12d26;"/>
    <path clip-path="url(#pc50690315f)" d="M 119.7 219.36 
L 147.6 219.36 
L 147.6 244 
L 119.7 244 
L 119.7 219.36 
" style="fill:#ce1a1e;"/>
    <path clip-path="url(#pc50690315f)" d="M 147.6 219.36 
L 175.5 219.36 
L 175.5 244 
L 147.6 244 
L 147.6 219.36 
" style="fill:#be151a;"/>
    <path clip-path="url(#pc50690315f)" d="M 175.5 219.36 
L 203.4 219.36 
L 203.4 244 
L 175.5 244 
L 175.5 219.36 
" style="fill:#67000d;"/>
    <path clip-path="url(#pc50690315f)" d="M 203.4 219.36 
L 231.3 219.36 
L 231.3 244 
L 203.4 244 
L 203.4 219.36 
" style="fill:#dc2924;"/>
    <path clip-path="url(#pc50690315f)" d="M 231.3 219.36 
L 259.2 219.36 
L 259.2 244 
L 231.3 244 
L 231.3 219.36 
" style="fill:#fc8262;"/>
   </g>
  </g>
 </g>
 <defs>
  <clipPath id="pc50690315f">
   <rect height="221.76" width="223.2" x="36" y="34.56"/>
  </clipPath>
 </defs>
</svg>
