<?xml version="1.0" encoding="utf-8" standalone="no"?>
<!DOCTYPE svg PUBLIC "-//W3C//DTD SVG 1.1//EN"
  "http://www.w3.org/Graphics/SVG/1.1/DTD/svg11.dtd">
<!-- Created with matplotlib (https://matplotlib.org/) -->
<svg height="288pt" version="1.1" viewBox="0 0 288 288" width="288pt" xmlns="http://www.w3.org/2000/svg" xmlns:xlink="http://www.w3.org/1999/xlink">
 <defs>
  <style type="text/css">
*{stroke-linecap:butt;stroke-linejoin:round;white-space:pre;}
  </style>
 </defs>
 <g id="figure_1">
  <g id="patch_1">
   <path d="M 0 288 
L 288 288 
L 288 0 
L 0 0 
z
" style="fill:#ffffff;"/>
  </g>
  <g id="axes_1">
   <g id="patch_2">
    <path d="M 36 256.32 
L 259.2 256.32 
L 259.2 34.56 
L 36 34.56 
z
" style="fill:#eaeaf2;"/>
   </g>
   <g id="matplotlib.axis_1"/>
   <g id="matplotlib.axis_2"/>
   <g id="QuadMesh_1">
    <path clip-path="url(#p9edcb6bcb2)" d="M 36 46.88 
L 63.9 46.88 
L 63.9 71.52 
L 36 71.52 
L 36 46.88 
" style="fill:#f2f2f2;"/>
    <path clip-path="url(#p9edcb6bcb2)" d="M 63.9 46.88 
L 91.8 46.88 
L 91.8 71.52 
L 63.9 71.52 
L 63.9 46.88 
" style="fill:#f2f2f2;"/>
    <path clip-path="url(#p9edcb6bcb2)" d="M 91.8 46.88 
L 119.7 46.88 
L 119.7 71.52 
L 91.8 71.52 
L 91.8 46.88 
" style="fill:#f2f2f2;"/>
    <path clip-path="url(#p9edcb6bcb2)" d="M 119.7 46.88 
L 147.6 46.88 
L 147.6 71.52 
L 119.7 71.52 
L 119.7 46.88 
" style="fill:#f2f2f2;"/>
    <path clip-path="url(#p9edcb6bcb2)" d="M 147.6 46.88 
L 175.5 46.88 
L 175.5 71.52 
L 147.6 71.52 
L 147.6 46.88 
" style="fill:#f2f2f2;"/>
    <path clip-path="url(#p9edcb6bcb2)" d="M 175.5 46.88 
L 203.4 46.88 
L 203.4 71.52 
L 175.5 71.52 
L 175.5 46.88 
" style="fill:#f2f2f2;"/>
    <path clip-path="url(#p9edcb6bcb2)" d="M 203.4 46.88 
L 231.3 46.88 
L 231.3 71.52 
L 203.4 71.52 
L 203.4 46.88 
" style="fill:#f2f2f2;"/>
    <path clip-path="url(#p9edcb6bcb2)" d="M 231.3 46.88 
L 259.2 46.88 
L 259.2 71.52 
L 231.3 71.52 
L 231.3 46.88 
" style="fill:#f2f2f2;"/>
    <path clip-path="url(#p9edcb6bcb2)" d="M 36 71.52 
L 63.9 71.52 
L 63.9 96.16 
L 36 96.16 
L 36 71.52 
" style="fill:#f2f2f2;"/>
    <path clip-path="url(#p9edcb6bcb2)" d="M 63.9 71.52 
L 91.8 71.52 
L 91.8 96.16 
L 63.9 96.16 
L 63.9 71.52 
" style="fill:#f2f2f2;"/>
    <path clip-path="url(#p9edcb6bcb2)" d="M 91.8 71.52 
L 119.7 71.52 
L 119.7 96.16 
L 91.8 96.16 
L 91.8 71.52 
" style="fill:#f2f2f2;"/>
    <path clip-path="url(#p9edcb6bcb2)" d="M 119.7 71.52 
L 147.6 71.52 
L 147.6 96.16 
L 119.7 96.16 
L 119.7 71.52 
" style="fill:#edf5f7;"/>
    <path clip-path="url(#p9edcb6bcb2)" d="M 147.6 71.52 
L 175.5 71.52 
L 175.5 96.16 
L 147.6 96.16 
L 147.6 71.52 
" style="fill:#f2f2f2;"/>
    <path clip-path="url(#p9edcb6bcb2)" d="M 175.5 71.52 
L 203.4 71.52 
L 203.4 96.16 
L 175.5 96.16 
L 175.5 71.52 
" style="fill:#f4e0db;"/>
    <path clip-path="url(#p9edcb6bcb2)" d="M 203.4 71.52 
L 231.3 71.52 
L 231.3 96.16 
L 203.4 96.16 
L 203.4 71.52 
" style="fill:#f2f2f2;"/>
    <path clip-path="url(#p9edcb6bcb2)" d="M 231.3 71.52 
L 259.2 71.52 
L 259.2 96.16 
L 231.3 96.16 
L 231.3 71.52 
" style="fill:#ecf4f7;"/>
    <path clip-path="url(#p9edcb6bcb2)" d="M 36 96.16 
L 63.9 96.16 
L 63.9 120.8 
L 36 120.8 
L 36 96.16 
" style="fill:#edf5f7;"/>
    <path clip-path="url(#p9edcb6bcb2)" d="M 63.9 96.16 
L 91.8 96.16 
L 91.8 120.8 
L 63.9 120.8 
L 63.9 96.16 
" style="fill:#f2f2f2;"/>
    <path clip-path="url(#p9edcb6bcb2)" d="M 91.8 96.16 
L 119.7 96.16 
L 119.7 120.8 
L 91.8 120.8 
L 91.8 96.16 
" style="fill:#ccdfe4;"/>
    <path clip-path="url(#p9edcb6bcb2)" d="M 119.7 96.16 
L 147.6 96.16 
L 147.6 120.8 
L 119.7 120.8 
L 119.7 96.16 
" style="fill:#d0e1e6;"/>
    <path clip-path="url(#p9edcb6bcb2)" d="M 147.6 96.16 
L 175.5 96.16 
L 175.5 120.8 
L 147.6 120.8 
L 147.6 96.16 
" style="fill:#f9edea;"/>
    <path clip-path="url(#p9edcb6bcb2)" d="M 175.5 96.16 
L 203.4 96.16 
L 203.4 120.8 
L 175.5 120.8 
L 175.5 96.16 
" style="fill:#f2f2f2;"/>
    <path clip-path="url(#p9edcb6bcb2)" d="M 203.4 96.16 
L 231.3 96.16 
L 231.3 120.8 
L 203.4 120.8 
L 203.4 96.16 
" style="fill:#f2f2f2;"/>
    <path clip-path="url(#p9edcb6bcb2)" d="M 231.3 96.16 
L 259.2 96.16 
L 259.2 120.8 
L 231.3 120.8 
L 231.3 96.16 
" style="fill:#f2f2f2;"/>
    <path clip-path="url(#p9edcb6bcb2)" d="M 36 120.8 
L 63.9 120.8 
L 63.9 145.44 
L 36 145.44 
L 36 120.8 
" style="fill:#e6f0f3;"/>
    <path clip-path="url(#p9edcb6bcb2)" d="M 63.9 120.8 
L 91.8 120.8 
L 91.8 145.44 
L 63.9 145.44 
L 63.9 120.8 
" style="fill:#d5e5ea;"/>
    <path clip-path="url(#p9edcb6bcb2)" d="M 91.8 120.8 
L 119.7 120.8 
L 119.7 145.44 
L 91.8 145.44 
L 91.8 120.8 
" style="fill:#8bb3bf;"/>
    <path clip-path="url(#p9edcb6bcb2)" d="M 119.7 120.8 
L 147.6 120.8 
L 147.6 145.44 
L 119.7 145.44 
L 119.7 120.8 
" style="fill:#e3afa2;"/>
    <path clip-path="url(#p9edcb6bcb2)" d="M 147.6 120.8 
L 175.5 120.8 
L 175.5 145.44 
L 147.6 145.44 
L 147.6 120.8 
" style="fill:#98bcc7;"/>
    <path clip-path="url(#p9edcb6bcb2)" d="M 175.5 120.8 
L 203.4 120.8 
L 203.4 145.44 
L 175.5 145.44 
L 175.5 120.8 
" style="fill:#da9786;"/>
    <path clip-path="url(#p9edcb6bcb2)" d="M 203.4 120.8 
L 231.3 120.8 
L 231.3 145.44 
L 203.4 145.44 
L 203.4 120.8 
" style="fill:#f2f2f2;"/>
    <path clip-path="url(#p9edcb6bcb2)" d="M 231.3 120.8 
L 259.2 120.8 
L 259.2 145.44 
L 231.3 145.44 
L 231.3 120.8 
" style="fill:#f6e5e1;"/>
    <path clip-path="url(#p9edcb6bcb2)" d="M 36 145.44 
L 63.9 145.44 
L 63.9 170.08 
L 36 170.08 
L 36 145.44 
" style="fill:#f2f2f2;"/>
    <path clip-path="url(#p9edcb6bcb2)" d="M 63.9 145.44 
L 91.8 145.44 
L 91.8 170.08 
L 63.9 170.08 
L 63.9 145.44 
" style="fill:#c7dbe1;"/>
    <path clip-path="url(#p9edcb6bcb2)" d="M 91.8 145.44 
L 119.7 145.44 
L 119.7 170.08 
L 91.8 170.08 
L 91.8 145.44 
" style="fill:#ebc6bd;"/>
    <path clip-path="url(#p9edcb6bcb2)" d="M 119.7 145.44 
L 147.6 145.44 
L 147.6 170.08 
L 119.7 170.08 
L 119.7 145.44 
" style="fill:#70a1af;"/>
    <path clip-path="url(#p9edcb6bcb2)" d="M 147.6 145.44 
L 175.5 145.44 
L 175.5 170.08 
L 147.6 170.08 
L 147.6 145.44 
" style="fill:#db9988;"/>
    <path clip-path="url(#p9edcb6bcb2)" d="M 175.5 145.44 
L 203.4 145.44 
L 203.4 170.08 
L 175.5 170.08 
L 175.5 145.44 
" style="fill:#f2f2f2;"/>
    <path clip-path="url(#p9edcb6bcb2)" d="M 203.4 145.44 
L 231.3 145.44 
L 231.3 170.08 
L 203.4 170.08 
L 203.4 145.44 
" style="fill:#e4b3a7;"/>
    <path clip-path="url(#p9edcb6bcb2)" d="M 231.3 145.44 
L 259.2 145.44 
L 259.2 170.08 
L 231.3 170.08 
L 231.3 145.44 
" style="fill:#e3eef1;"/>
    <path clip-path="url(#p9edcb6bcb2)" d="M 36 170.08 
L 63.9 170.08 
L 63.9 194.72 
L 36 194.72 
L 36 170.08 
" style="fill:#e8f1f4;"/>
    <path clip-path="url(#p9edcb6bcb2)" d="M 63.9 170.08 
L 91.8 170.08 
L 91.8 194.72 
L 63.9 194.72 
L 63.9 170.08 
" style="fill:#e0a698;"/>
    <path clip-path="url(#p9edcb6bcb2)" d="M 91.8 170.08 
L 119.7 170.08 
L 119.7 194.72 
L 91.8 194.72 
L 91.8 170.08 
" style="fill:#e8f1f4;"/>
    <path clip-path="url(#p9edcb6bcb2)" d="M 119.7 170.08 
L 147.6 170.08 
L 147.6 194.72 
L 119.7 194.72 
L 119.7 170.08 
" style="fill:#f0d3cc;"/>
    <path clip-path="url(#p9edcb6bcb2)" d="M 147.6 170.08 
L 175.5 170.08 
L 175.5 194.72 
L 147.6 194.72 
L 147.6 170.08 
" style="fill:#b4cfd7;"/>
    <path clip-path="url(#p9edcb6bcb2)" d="M 175.5 170.08 
L 203.4 170.08 
L 203.4 194.72 
L 175.5 194.72 
L 175.5 170.08 
" style="fill:#f2d9d3;"/>
    <path clip-path="url(#p9edcb6bcb2)" d="M 203.4 170.08 
L 231.3 170.08 
L 231.3 194.72 
L 203.4 194.72 
L 203.4 170.08 
" style="fill:#a8c6cf;"/>
    <path clip-path="url(#p9edcb6bcb2)" d="M 231.3 170.08 
L 259.2 170.08 
L 259.2 194.72 
L 231.3 194.72 
L 231.3 170.08 
" style="fill:#f2f2f2;"/>
    <path clip-path="url(#p9edcb6bcb2)" d="M 36 194.72 
L 63.9 194.72 
L 63.9 219.36 
L 36 219.36 
L 36 194.72 
" style="fill:#f2dbd5;"/>
    <path clip-path="url(#p9edcb6bcb2)" d="M 63.9 194.72 
L 91.8 194.72 
L 91.8 219.36 
L 63.9 219.36 
L 63.9 194.72 
" style="fill:#c7dbe1;"/>
    <path clip-path="url(#p9edcb6bcb2)" d="M 91.8 194.72 
L 119.7 194.72 
L 119.7 219.36 
L 91.8 219.36 
L 91.8 194.72 
" style="fill:#d1e2e7;"/>
    <path clip-path="url(#p9edcb6bcb2)" d="M 119.7 194.72 
L 147.6 194.72 
L 147.6 219.36 
L 119.7 219.36 
L 119.7 194.72 
" style="fill:#adcad2;"/>
    <path clip-path="url(#p9edcb6bcb2)" d="M 147.6 194.72 
L 175.5 194.72 
L 175.5 219.36 
L 147.6 219.36 
L 147.6 194.72 
" style="fill:#c2d8df;"/>
    <path clip-path="url(#p9edcb6bcb2)" d="M 175.5 194.72 
L 203.4 194.72 
L 203.4 219.36 
L 175.5 219.36 
L 175.5 194.72 
" style="fill:#e9c1b6;"/>
    <path clip-path="url(#p9edcb6bcb2)" d="M 203.4 194.72 
L 231.3 194.72 
L 231.3 219.36 
L 203.4 219.36 
L 203.4 194.72 
" style="fill:#f0d3cc;"/>
    <path clip-path="url(#p9edcb6bcb2)" d="M 231.3 194.72 
L 259.2 194.72 
L 259.2 219.36 
L 231.3 219.36 
L 231.3 194.72 
" style="fill:#f2f2f2;"/>
    <path clip-path="url(#p9edcb6bcb2)" d="M 36 219.36 
L 63.9 219.36 
L 63.9 244 
L 36 244 
L 36 219.36 
" style="fill:#f2f2f2;"/>
    <path clip-path="url(#p9edcb6bcb2)" d="M 63.9 219.36 
L 91.8 219.36 
L 91.8 244 
L 63.9 244 
L 63.9 219.36 
" style="fill:#f2f2f2;"/>
    <path clip-path="url(#p9edcb6bcb2)" d="M 91.8 219.36 
L 119.7 219.36 
L 119.7 244 
L 91.8 244 
L 91.8 219.36 
" style="fill:#f6e5e1;"/>
    <path clip-path="url(#p9edcb6bcb2)" d="M 119.7 219.36 
L 147.6 219.36 
L 147.6 244 
L 119.7 244 
L 119.7 219.36 
" style="fill:#f2f2f2;"/>
    <path clip-path="url(#p9edcb6bcb2)" d="M 147.6 219.36 
L 175.5 219.36 
L 175.5 244 
L 147.6 244 
L 147.6 219.36 
" style="fill:#ebc6bd;"/>
    <path clip-path="url(#p9edcb6bcb2)" d="M 175.5 219.36 
L 203.4 219.36 
L 203.4 244 
L 175.5 244 
L 175.5 219.36 
" style="fill:#f2f2f2;"/>
    <path clip-path="url(#p9edcb6bcb2)" d="M 203.4 219.36 
L 231.3 219.36 
L 231.3 244 
L 203.4 244 
L 203.4 219.36 
" style="fill:#eccac1;"/>
    <path clip-path="url(#p9edcb6bcb2)" d="M 231.3 219.36 
L 259.2 219.36 
L 259.2 244 
L 231.3 244 
L 231.3 219.36 
" style="fill:#eecec6;"/>
   </g>
  </g>
 </g>
 <defs>
  <clipPath id="p9edcb6bcb2">
   <rect height="221.76" width="223.2" x="36" y="34.56"/>
  </clipPath>
 </defs>
</svg>
