<?xml version="1.0" encoding="utf-8" standalone="no"?>
<!DOCTYPE svg PUBLIC "-//W3C//DTD SVG 1.1//EN"
  "http://www.w3.org/Graphics/SVG/1.1/DTD/svg11.dtd">
<!-- Created with matplotlib (https://matplotlib.org/) -->
<svg height="288pt" version="1.1" viewBox="0 0 288 288" width="288pt" xmlns="http://www.w3.org/2000/svg" xmlns:xlink="http://www.w3.org/1999/xlink">
 <defs>
  <style type="text/css">
*{stroke-linecap:butt;stroke-linejoin:round;white-space:pre;}
  </style>
 </defs>
 <g id="figure_1">
  <g id="patch_1">
   <path d="M 0 288 
L 288 288 
L 288 0 
L 0 0 
z
" style="fill:#ffffff;"/>
  </g>
  <g id="axes_1">
   <g id="patch_2">
    <path d="M 36 256.32 
L 259.2 256.32 
L 259.2 34.56 
L 36 34.56 
z
" style="fill:#eaeaf2;"/>
   </g>
   <g id="matplotlib.axis_1"/>
   <g id="matplotlib.axis_2"/>
   <g id="QuadMesh_1">
    <path clip-path="url(#p5693ce9431)" d="M 36 46.88 
L 63.9 46.88 
L 63.9 71.52 
L 36 71.52 
L 36 46.88 
" style="fill:#f2f2f2;"/>
    <path clip-path="url(#p5693ce9431)" d="M 63.9 46.88 
L 91.8 46.88 
L 91.8 71.52 
L 63.9 71.52 
L 63.9 46.88 
" style="fill:#f2f2f2;"/>
    <path clip-path="url(#p5693ce9431)" d="M 91.8 46.88 
L 119.7 46.88 
L 119.7 71.52 
L 91.8 71.52 
L 91.8 46.88 
" style="fill:#f2f2f2;"/>
    <path clip-path="url(#p5693ce9431)" d="M 119.7 46.88 
L 147.6 46.88 
L 147.6 71.52 
L 119.7 71.52 
L 119.7 46.88 
" style="fill:#f2f2f2;"/>
    <path clip-path="url(#p5693ce9431)" d="M 147.6 46.88 
L 175.5 46.88 
L 175.5 71.52 
L 147.6 71.52 
L 147.6 46.88 
" style="fill:#f2f2f2;"/>
    <path clip-path="url(#p5693ce9431)" d="M 175.5 46.88 
L 203.4 46.88 
L 203.4 71.52 
L 175.5 71.52 
L 175.5 46.88 
" style="fill:#f2f2f2;"/>
    <path clip-path="url(#p5693ce9431)" d="M 203.4 46.88 
L 231.3 46.88 
L 231.3 71.52 
L 203.4 71.52 
L 203.4 46.88 
" style="fill:#f2f2f2;"/>
    <path clip-path="url(#p5693ce9431)" d="M 231.3 46.88 
L 259.2 46.88 
L 259.2 71.52 
L 231.3 71.52 
L 231.3 46.88 
" style="fill:#f2f2f2;"/>
    <path clip-path="url(#p5693ce9431)" d="M 36 71.52 
L 63.9 71.52 
L 63.9 96.16 
L 36 96.16 
L 36 71.52 
" style="fill:#f2f2f2;"/>
    <path clip-path="url(#p5693ce9431)" d="M 63.9 71.52 
L 91.8 71.52 
L 91.8 96.16 
L 63.9 96.16 
L 63.9 71.52 
" style="fill:#f2f2f2;"/>
    <path clip-path="url(#p5693ce9431)" d="M 91.8 71.52 
L 119.7 71.52 
L 119.7 96.16 
L 91.8 96.16 
L 91.8 71.52 
" style="fill:#f2f2f2;"/>
    <path clip-path="url(#p5693ce9431)" d="M 119.7 71.52 
L 147.6 71.52 
L 147.6 96.16 
L 119.7 96.16 
L 119.7 71.52 
" style="fill:#f9eeeb;"/>
    <path clip-path="url(#p5693ce9431)" d="M 147.6 71.52 
L 175.5 71.52 
L 175.5 96.16 
L 147.6 96.16 
L 147.6 71.52 
" style="fill:#f8ece9;"/>
    <path clip-path="url(#p5693ce9431)" d="M 175.5 71.52 
L 203.4 71.52 
L 203.4 96.16 
L 175.5 96.16 
L 175.5 71.52 
" style="fill:#f2f2f2;"/>
    <path clip-path="url(#p5693ce9431)" d="M 203.4 71.52 
L 231.3 71.52 
L 231.3 96.16 
L 203.4 96.16 
L 203.4 71.52 
" style="fill:#f2f2f2;"/>
    <path clip-path="url(#p5693ce9431)" d="M 231.3 71.52 
L 259.2 71.52 
L 259.2 96.16 
L 231.3 96.16 
L 231.3 71.52 
" style="fill:#f2f2f2;"/>
    <path clip-path="url(#p5693ce9431)" d="M 36 96.16 
L 63.9 96.16 
L 63.9 120.8 
L 36 120.8 
L 36 96.16 
" style="fill:#f2f2f2;"/>
    <path clip-path="url(#p5693ce9431)" d="M 63.9 96.16 
L 91.8 96.16 
L 91.8 120.8 
L 63.9 120.8 
L 63.9 96.16 
" style="fill:#f2f2f2;"/>
    <path clip-path="url(#p5693ce9431)" d="M 91.8 96.16 
L 119.7 96.16 
L 119.7 120.8 
L 91.8 120.8 
L 91.8 96.16 
" style="fill:#edf5f7;"/>
    <path clip-path="url(#p5693ce9431)" d="M 119.7 96.16 
L 147.6 96.16 
L 147.6 120.8 
L 119.7 120.8 
L 119.7 96.16 
" style="fill:#f2f2f2;"/>
    <path clip-path="url(#p5693ce9431)" d="M 147.6 96.16 
L 175.5 96.16 
L 175.5 120.8 
L 147.6 120.8 
L 147.6 96.16 
" style="fill:#f2f2f2;"/>
    <path clip-path="url(#p5693ce9431)" d="M 175.5 96.16 
L 203.4 96.16 
L 203.4 120.8 
L 175.5 120.8 
L 175.5 96.16 
" style="fill:#edf5f7;"/>
    <path clip-path="url(#p5693ce9431)" d="M 203.4 96.16 
L 231.3 96.16 
L 231.3 120.8 
L 203.4 120.8 
L 203.4 96.16 
" style="fill:#e0ecf0;"/>
    <path clip-path="url(#p5693ce9431)" d="M 231.3 96.16 
L 259.2 96.16 
L 259.2 120.8 
L 231.3 120.8 
L 231.3 96.16 
" style="fill:#f2f2f2;"/>
    <path clip-path="url(#p5693ce9431)" d="M 36 120.8 
L 63.9 120.8 
L 63.9 145.44 
L 36 145.44 
L 36 120.8 
" style="fill:#edf5f7;"/>
    <path clip-path="url(#p5693ce9431)" d="M 63.9 120.8 
L 91.8 120.8 
L 91.8 145.44 
L 63.9 145.44 
L 63.9 120.8 
" style="fill:#d1e2e7;"/>
    <path clip-path="url(#p5693ce9431)" d="M 91.8 120.8 
L 119.7 120.8 
L 119.7 145.44 
L 91.8 145.44 
L 91.8 120.8 
" style="fill:#cee0e6;"/>
    <path clip-path="url(#p5693ce9431)" d="M 119.7 120.8 
L 147.6 120.8 
L 147.6 145.44 
L 119.7 145.44 
L 119.7 120.8 
" style="fill:#cbdee4;"/>
    <path clip-path="url(#p5693ce9431)" d="M 147.6 120.8 
L 175.5 120.8 
L 175.5 145.44 
L 147.6 145.44 
L 147.6 120.8 
" style="fill:#c7dbe1;"/>
    <path clip-path="url(#p5693ce9431)" d="M 175.5 120.8 
L 203.4 120.8 
L 203.4 145.44 
L 175.5 145.44 
L 175.5 120.8 
" style="fill:#c7dbe1;"/>
    <path clip-path="url(#p5693ce9431)" d="M 203.4 120.8 
L 231.3 120.8 
L 231.3 145.44 
L 203.4 145.44 
L 203.4 120.8 
" style="fill:#d4e4e9;"/>
    <path clip-path="url(#p5693ce9431)" d="M 231.3 120.8 
L 259.2 120.8 
L 259.2 145.44 
L 231.3 145.44 
L 231.3 120.8 
" style="fill:#e3eef1;"/>
    <path clip-path="url(#p5693ce9431)" d="M 36 145.44 
L 63.9 145.44 
L 63.9 170.08 
L 36 170.08 
L 36 145.44 
" style="fill:#c8dce2;"/>
    <path clip-path="url(#p5693ce9431)" d="M 63.9 145.44 
L 91.8 145.44 
L 91.8 170.08 
L 63.9 170.08 
L 63.9 145.44 
" style="fill:#dbe9ed;"/>
    <path clip-path="url(#p5693ce9431)" d="M 91.8 145.44 
L 119.7 145.44 
L 119.7 170.08 
L 91.8 170.08 
L 91.8 145.44 
" style="fill:#b4cfd7;"/>
    <path clip-path="url(#p5693ce9431)" d="M 119.7 145.44 
L 147.6 145.44 
L 147.6 170.08 
L 119.7 170.08 
L 119.7 145.44 
" style="fill:#adcad2;"/>
    <path clip-path="url(#p5693ce9431)" d="M 147.6 145.44 
L 175.5 145.44 
L 175.5 170.08 
L 147.6 170.08 
L 147.6 145.44 
" style="fill:#a5c5ce;"/>
    <path clip-path="url(#p5693ce9431)" d="M 175.5 145.44 
L 203.4 145.44 
L 203.4 170.08 
L 175.5 170.08 
L 175.5 145.44 
" style="fill:#b4cfd7;"/>
    <path clip-path="url(#p5693ce9431)" d="M 203.4 145.44 
L 231.3 145.44 
L 231.3 170.08 
L 203.4 170.08 
L 203.4 145.44 
" style="fill:#dbe9ed;"/>
    <path clip-path="url(#p5693ce9431)" d="M 231.3 145.44 
L 259.2 145.44 
L 259.2 170.08 
L 231.3 170.08 
L 231.3 145.44 
" style="fill:#c5dae0;"/>
    <path clip-path="url(#p5693ce9431)" d="M 36 170.08 
L 63.9 170.08 
L 63.9 194.72 
L 36 194.72 
L 36 170.08 
" style="fill:#f2f2f2;"/>
    <path clip-path="url(#p5693ce9431)" d="M 63.9 170.08 
L 91.8 170.08 
L 91.8 194.72 
L 63.9 194.72 
L 63.9 170.08 
" style="fill:#ecf4f7;"/>
    <path clip-path="url(#p5693ce9431)" d="M 91.8 170.08 
L 119.7 170.08 
L 119.7 194.72 
L 91.8 194.72 
L 91.8 170.08 
" style="fill:#dae8ec;"/>
    <path clip-path="url(#p5693ce9431)" d="M 119.7 170.08 
L 147.6 170.08 
L 147.6 194.72 
L 119.7 194.72 
L 119.7 170.08 
" style="fill:#bcd4db;"/>
    <path clip-path="url(#p5693ce9431)" d="M 147.6 170.08 
L 175.5 170.08 
L 175.5 194.72 
L 147.6 194.72 
L 147.6 170.08 
" style="fill:#f6e4df;"/>
    <path clip-path="url(#p5693ce9431)" d="M 175.5 170.08 
L 203.4 170.08 
L 203.4 194.72 
L 175.5 194.72 
L 175.5 170.08 
" style="fill:#c1d7de;"/>
    <path clip-path="url(#p5693ce9431)" d="M 203.4 170.08 
L 231.3 170.08 
L 231.3 194.72 
L 203.4 194.72 
L 203.4 170.08 
" style="fill:#eed0c8;"/>
    <path clip-path="url(#p5693ce9431)" d="M 231.3 170.08 
L 259.2 170.08 
L 259.2 194.72 
L 231.3 194.72 
L 231.3 170.08 
" style="fill:#dae8ec;"/>
    <path clip-path="url(#p5693ce9431)" d="M 36 194.72 
L 63.9 194.72 
L 63.9 219.36 
L 36 219.36 
L 36 194.72 
" style="fill:#dfebef;"/>
    <path clip-path="url(#p5693ce9431)" d="M 63.9 194.72 
L 91.8 194.72 
L 91.8 219.36 
L 63.9 219.36 
L 63.9 194.72 
" style="fill:#c5dae0;"/>
    <path clip-path="url(#p5693ce9431)" d="M 91.8 194.72 
L 119.7 194.72 
L 119.7 219.36 
L 91.8 219.36 
L 91.8 194.72 
" style="fill:#9abdc7;"/>
    <path clip-path="url(#p5693ce9431)" d="M 119.7 194.72 
L 147.6 194.72 
L 147.6 219.36 
L 119.7 219.36 
L 119.7 194.72 
" style="fill:#b2cdd5;"/>
    <path clip-path="url(#p5693ce9431)" d="M 147.6 194.72 
L 175.5 194.72 
L 175.5 219.36 
L 147.6 219.36 
L 147.6 194.72 
" style="fill:#a9c7d0;"/>
    <path clip-path="url(#p5693ce9431)" d="M 175.5 194.72 
L 203.4 194.72 
L 203.4 219.36 
L 175.5 219.36 
L 175.5 194.72 
" style="fill:#eaf3f6;"/>
    <path clip-path="url(#p5693ce9431)" d="M 203.4 194.72 
L 231.3 194.72 
L 231.3 219.36 
L 203.4 219.36 
L 203.4 194.72 
" style="fill:#e8f1f4;"/>
    <path clip-path="url(#p5693ce9431)" d="M 231.3 194.72 
L 259.2 194.72 
L 259.2 219.36 
L 231.3 219.36 
L 231.3 194.72 
" style="fill:#ddeaee;"/>
    <path clip-path="url(#p5693ce9431)" d="M 36 219.36 
L 63.9 219.36 
L 63.9 244 
L 36 244 
L 36 219.36 
" style="fill:#d3e3e8;"/>
    <path clip-path="url(#p5693ce9431)" d="M 63.9 219.36 
L 91.8 219.36 
L 91.8 244 
L 63.9 244 
L 63.9 219.36 
" style="fill:#9fc0ca;"/>
    <path clip-path="url(#p5693ce9431)" d="M 91.8 219.36 
L 119.7 219.36 
L 119.7 244 
L 91.8 244 
L 91.8 219.36 
" style="fill:#97bbc6;"/>
    <path clip-path="url(#p5693ce9431)" d="M 119.7 219.36 
L 147.6 219.36 
L 147.6 244 
L 119.7 244 
L 119.7 219.36 
" style="fill:#7ca8b6;"/>
    <path clip-path="url(#p5693ce9431)" d="M 147.6 219.36 
L 175.5 219.36 
L 175.5 244 
L 147.6 244 
L 147.6 219.36 
" style="fill:#91b7c2;"/>
    <path clip-path="url(#p5693ce9431)" d="M 175.5 219.36 
L 203.4 219.36 
L 203.4 244 
L 175.5 244 
L 175.5 219.36 
" style="fill:#b0ccd4;"/>
    <path clip-path="url(#p5693ce9431)" d="M 203.4 219.36 
L 231.3 219.36 
L 231.3 244 
L 203.4 244 
L 203.4 219.36 
" style="fill:#acc9d2;"/>
    <path clip-path="url(#p5693ce9431)" d="M 231.3 219.36 
L 259.2 219.36 
L 259.2 244 
L 231.3 244 
L 231.3 219.36 
" style="fill:#d7e6eb;"/>
   </g>
  </g>
 </g>
 <defs>
  <clipPath id="p5693ce9431">
   <rect height="221.76" width="223.2" x="36" y="34.56"/>
  </clipPath>
 </defs>
</svg>
